<?xml version="1.0" encoding="utf-8"?>
<!-- Generator: Adobe Illustrator 19.0.0, SVG Export Plug-In . SVG Version: 6.00 Build 0)  -->
<svg version="1.1" id="Layer_1" xmlns="http://www.w3.org/2000/svg" xmlns:xlink="http://www.w3.org/1999/xlink" x="0px" y="0px"
	 viewBox="-241 243 16 16" style="enable-background:new -241 243 16 16;" xml:space="preserve">
<style type="text/css">
	.st0{fill:#FFFFFF;}
</style>
<path class="st0" d="M-236.3,252.5c0,1.8,1.5,3.3,3.3,3.3s3.3-1.5,3.3-3.3s-1.5-3.3-3.3-3.3S-236.3,250.7-236.3,252.5z M-226,247
	h-3.5c-0.3-1-0.5-2-1.5-2h-4c-1,0-1.3,1-1.5,2h-3.5c-0.6,0-1,0.4-1,1v9c0,0.5,0.4,1,1,1h14c0.6,0,1-0.5,1-1v-9
	C-225,247.4-225.4,247-226,247z M-233,256.9c-2.5,0-4.4-2-4.4-4.4s2-4.4,4.4-4.4s4.4,2,4.4,4.4S-230.5,256.9-233,256.9z M-226,250
	h-2v-1h2V250z"/>
</svg>
