<?xml version="1.0" encoding="utf-8"?>
<!-- Generator: Adobe Illustrator 19.0.0, SVG Export Plug-In . SVG Version: 6.00 Build 0)  -->
<svg version="1.1" id="Layer_1" xmlns="http://www.w3.org/2000/svg" xmlns:xlink="http://www.w3.org/1999/xlink" x="0px" y="0px"
	 viewBox="-241 243 16 16" style="enable-background:new -241 243 16 16;" xml:space="preserve">
<style type="text/css">
	.st0{fill:#FFFFFF;}
</style>
<path class="st0" d="M-234,254h2v2h-2V254z M-230,247c0.6,0,1,0.4,1,1v3l-3,2h-2v-1l3-2v-1h-5v-2H-230z M-233,244.5
	c-1.7,0-3.4,0.7-4.6,1.9c-1.2,1.2-1.9,2.9-1.9,4.6s0.7,3.4,1.9,4.6c1.2,1.2,2.9,1.9,4.6,1.9s3.4-0.7,4.6-1.9
	c1.2-1.2,1.9-2.9,1.9-4.6c0-1.7-0.7-3.4-1.9-4.6C-229.6,245.2-231.3,244.5-233,244.5z M-233,243L-233,243c4.4,0,8,3.6,8,8
	s-3.6,8-8,8s-8-3.6-8-8S-237.4,243-233,243z"/>
</svg>
