<?xml version="1.0" encoding="utf-8"?>
<!-- Generator: Adobe Illustrator 19.0.0, SVG Export Plug-In . SVG Version: 6.00 Build 0)  -->
<svg version="1.1" id="Layer_1" xmlns="http://www.w3.org/2000/svg" xmlns:xlink="http://www.w3.org/1999/xlink" x="0px" y="0px"
	 viewBox="-241 243 16 16" style="enable-background:new -241 243 16 16;" xml:space="preserve">
<style type="text/css">
	.st0{fill:#FFFFFF;}
</style>
<path class="st0" d="M-225.1,255.9L-225.1,255.9l-4.9-4.9l4.9-4.9l0,0c0.1-0.1,0.1-0.1,0.1-0.2c0.1-0.2,0-0.4-0.1-0.5l-2.3-2.3
	c-0.1-0.1-0.4-0.2-0.5-0.1c-0.1,0-0.1,0.1-0.2,0.1l0,0l-4.9,4.9l-4.9-4.9l0,0c-0.1-0.1-0.1-0.1-0.2-0.1c-0.2-0.1-0.4,0-0.5,0.1
	l-2.3,2.3c-0.1,0.1-0.2,0.4-0.1,0.5c0,0.1,0.1,0.1,0.1,0.2l0,0l4.9,4.9l-4.9,4.9l0,0c-0.1,0.1-0.1,0.1-0.1,0.2
	c-0.1,0.2,0,0.4,0.1,0.5l2.3,2.3c0.1,0.1,0.4,0.2,0.5,0.1c0.1,0,0.1-0.1,0.2-0.1l0,0l4.9-4.9l4.9,4.9l0,0c0.1,0.1,0.1,0.1,0.2,0.1
	c0.2,0.1,0.4,0,0.5-0.1l2.3-2.3c0.1-0.1,0.2-0.4,0.1-0.5C-225.1,256-225.1,255.9-225.1,255.9z"/>
</svg>
