<?xml version="1.0" encoding="utf-8"?>
<!-- Generator: Adobe Illustrator 19.0.0, SVG Export Plug-In . SVG Version: 6.00 Build 0)  -->
<svg version="1.1" id="Layer_1" xmlns="http://www.w3.org/2000/svg" xmlns:xlink="http://www.w3.org/1999/xlink" x="0px" y="0px"
	 viewBox="-241 243 16 16" style="enable-background:new -241 243 16 16;" xml:space="preserve">
<style type="text/css">
	.st0{fill:#FFFFFF;}
</style>
<path class="st0" d="M-233,246c-3.5,0-6.5,2-8,5c1.5,3,4.5,5,8,5s6.5-2,8-5C-226.5,248-229.5,246-233,246z M-229.1,248.7
	c0.9,0.6,1.7,1.4,2.3,2.3c-0.6,0.9-1.4,1.7-2.3,2.3c-1.2,0.8-2.5,1.2-3.9,1.2c-1.4,0-2.8-0.4-3.9-1.2c-0.9-0.6-1.7-1.4-2.3-2.3
	c0.6-0.9,1.4-1.7,2.3-2.3c0.1,0,0.1-0.1,0.2-0.1c-0.2,0.4-0.2,0.9-0.2,1.4c0,2.2,1.8,4,4,4s4-1.8,4-4c0-0.5-0.1-0.9-0.2-1.4
	C-229.2,248.6-229.1,248.6-229.1,248.7L-229.1,248.7L-229.1,248.7z M-233,249.5c0,0.8-0.7,1.5-1.5,1.5s-1.5-0.7-1.5-1.5
	s0.7-1.5,1.5-1.5S-233,248.7-233,249.5z"/>
</svg>
